<?xml version="1.0" encoding="utf-8"?>
<!-- Generator: Adobe Illustrator 23.0.1, SVG Export Plug-In . SVG Version: 6.00 Build 0)  -->
<svg version="1.1" id="Layer_1" xmlns="http://www.w3.org/2000/svg" xmlns:xlink="http://www.w3.org/1999/xlink" x="0px" y="0px"
	 viewBox="0 0 1000 1000" style="enable-background:new 0 0 1000 1000;" xml:space="preserve">
<style type="text/css">
	.st0{fill:#FCC588;}
	.st1{fill:#F6921E;}
	.st2{fill:#231F20;}
</style>
<g>
	<path class="st0" d="M598.6,500c0,54.5-44.2,98.6-98.6,98.6c-54.5,0-98.6-44.2-98.6-98.6s44.2-98.6,98.6-98.6
		C554.5,401.4,598.6,445.5,598.6,500"/>
	<path class="st1" d="M587.4,500c0,48.2-39.1,87.4-87.4,87.4c-48.2,0-87.3-39.1-87.3-87.4s39.1-87.4,87.3-87.4
		C548.3,412.6,587.4,451.8,587.4,500"/>
	<path d="M524.6,488.7c-2.3,0-4.6-1-6.1-2.9c-4.3-5.1-10.8-8.1-17.7-8.1c-7,0-13.4,2.9-17.8,8.1c-2.9,3.4-7.9,3.8-11.3,0.9
		c-3.4-2.9-3.8-8-0.9-11.4c7.4-8.7,18.4-13.7,30-13.7c11.7,0,22.6,5,30,13.7c2.9,3.4,2.5,8.5-0.9,11.4
		C528.3,488.1,526.5,488.7,524.6,488.7"/>
	<path d="M544.9,464c-2,0-4.1-0.8-5.6-2.3c-10.4-10.1-24.1-15.7-38.6-15.7c-14.5,0-28.2,5.6-38.6,15.7c-3.2,3.1-8.3,3-11.4-0.2
		c-3.1-3.2-3-8.3,0.2-11.4c13.4-13.1,31.1-20.2,49.8-20.2c18.7,0,36.4,7.2,49.8,20.2c3.2,3.1,3.3,8.2,0.2,11.4
		C549.1,463.2,547,464,544.9,464"/>
	<path d="M493.8,500.7h14.3c1.3,0,2.3-1,2.3-2.3l-0.8-5.6c0-1.3-1-2.3-2.3-2.3h-12.7c-1.3,0-2.3,1-2.3,2.3l-0.8,5.6
		C491.5,499.7,492.5,500.7,493.8,500.7"/>
	<path d="M540.9,534.3c0-3.3-2.3-6.1-5.4-6.7l-2-17.2c0-3.1-2.6-5.7-5.7-5.7h-54.8c-3.2,0-5.7,2.6-5.7,5.7l-2.7,17.6
		c-2.4,1.1-4.1,3.5-4.1,6.3l-0.8,18.5c0,3.8,3.1,6.9,6.8,6.9h3.6v7.1c0,2.5,2,4.6,4.6,4.6h4.4c2.5,0,4.6-2,4.6-4.6v-7.1h34.1v7.1
		c0,2.5,2,4.6,4.6,4.6h4.4c2.5,0,4.6-2,4.6-4.6v-7.1h3.8c3.8,0,6.9-3.1,6.9-6.9L540.9,534.3z M476.8,551.4c-3.7,0-6.7-3-6.7-6.7
		c0-3.7,3-6.7,6.7-6.7c3.7,0,6.8,3,6.8,6.7C483.5,548.4,480.5,551.4,476.8,551.4 M470.1,527.4l2-15.2c0-0.9,0.7-1.6,1.6-1.6h52.5
		c0.9,0,1.6,0.7,1.6,1.6l1.8,15.2H470.1z M525.6,551.4c-3.7,0-6.7-3-6.7-6.7c0-3.7,3-6.7,6.7-6.7c3.7,0,6.7,3,6.7,6.7
		C532.3,548.4,529.3,551.4,525.6,551.4"/>
	<path class="st2" d="M915.1,451.5c-2.9,0-5.2,2.3-5.2,5.2v85.4c0,2.9,2.3,5.2,5.2,5.2c2.9,0,5.2-2.3,5.2-5.2v-85.4
		C920.3,453.8,917.9,451.5,915.1,451.5"/>
	<path class="st2" d="M740.8,454.7c-0.8-1.9-2.7-3.1-4.8-3.2h0c-2.1,0-3.9,1.2-4.8,3.1l-24.3,55.5c0,0,0,0,0,0L693.8,540
		c-1.1,2.6,0.1,5.7,2.7,6.9c2.6,1.2,5.7,0,6.9-2.7l11.7-26.8h41.2l11.4,26.8c0.8,2,2.8,3.1,4.8,3.1c0.7,0,1.4-0.1,2.1-0.4
		c2.6-1.1,3.9-4.2,2.7-6.8L740.8,454.7z M719.7,507l16.3-37.2l15.9,37.2H719.7z"/>
	<path class="st2" d="M133.1,460.2c2.9,0,5.3-2.4,5.3-5.3c0-2.9-2.4-5.3-5.3-5.3H85c-2.9,0-5.3,2.4-5.3,5.3V542
		c0,2.9,2.4,5.3,5.3,5.3h48.1c2.9,0,5.3-2.4,5.3-5.3c0-2.9-2.4-5.3-5.3-5.3H90.4v-32.9h29.1c2.9,0,5.3-2.4,5.3-5.3
		c0-2.9-2.4-5.3-5.3-5.3H90.4v-32.9H133.1z"/>
	<path class="st2" d="M200.9,452.9c-0.8-1.9-2.7-3.2-4.8-3.2h0c-2.1,0-4,1.2-4.9,3.2l-24.8,56.7h0L153,539.9c-1.2,2.7,0.1,5.8,2.7,7
		c2.7,1.2,5.8,0,7-2.7l12-27.3h42l11.7,27.3c0.9,2,2.8,3.2,4.9,3.2c0.7,0,1.4-0.1,2.1-0.4c2.7-1.1,4-4.3,2.8-7L200.9,452.9z
		 M179.4,506.2l16.6-37.9l16.2,37.9H179.4z"/>
	<path class="st2" d="M400,450.6c-2.4-1.7-5.7-1.1-7.4,1.3l-25.9,37.4L341.5,452c-1.6-2.4-4.9-3.1-7.4-1.4c-2.4,1.6-3.1,4.9-1.4,7.4
		l28.6,42.4V542c0,2.9,2.4,5.3,5.3,5.3c3,0,5.3-2.4,5.3-5.3v-41.7l29.4-42.4C403,455.5,402.4,452.2,400,450.6"/>
	<path class="st2" d="M286,487.7c-13.5-4.2-19.4-6.8-19.4-13.9v-0.1c0-1.8,0.3-5.3,3.2-8.3c3.2-3.3,8.8-5.1,16.1-5.1
		c14.8,0,19.1,7.9,19.3,8.4c1.2,2.6,4.3,3.8,7,2.6c2.7-1.2,3.9-4.4,2.7-7c-0.3-0.6-6.9-14.6-28.9-14.6c-12.9,0-20.1,4.5-23.7,8.3
		c-4.1,4.2-6.3,9.9-6.2,15.9c0,15.7,14.9,20.3,26.8,24c14.6,4.5,23.5,7.9,23.5,19.9c0,5.8-1.6,10.2-4.9,13.4
		c-6.2,6-16.6,5.7-16.7,5.6h-0.3c-0.1,0-14.6-0.1-21.2-10.9c-1.5-2.5-4.8-3.3-7.3-1.7c-2.5,1.6-3.3,4.8-1.7,7.3
		c9.5,15.3,28.3,15.9,30.2,15.9c0.1,0,0.4,0,0.7,0c3.3,0,15.3-0.6,23.7-8.6c5.4-5.2,8.2-12.3,8.2-21.1
		C317,497.3,299.8,491.9,286,487.7"/>
	<path class="st2" d="M675.2,451.6h-25.3c-0.2,0-0.4-0.1-0.7-0.1c-0.2,0-0.5,0-0.7,0.1h-25.7c-2.8,0-5.1,2.3-5.1,5.1
		c0,2.8,2.3,5.1,5.1,5.1H644v80.3c0,2.9,2.3,5.2,5.2,5.2c2.9,0,5.2-2.3,5.2-5.2v-80.3h20.8c2.8,0,5.2-2.3,5.2-5.1
		C680.3,453.9,678,451.6,675.2,451.6"/>
	<path class="st2" d="M890.7,451.2c-2-2.1-5.3-2.1-7.4-0.1L842,491.8l-41.3-40.7c-2.1-2-5.4-2-7.4,0.1c-2,2-2,5.3,0.1,7.4l41.2,40.6
		l-39.9,39.3c-2,2-2.1,5.3,0,7.3c1,1,2.4,1.6,3.7,1.6c1.3,0,2.6-0.5,3.7-1.5l40-39.4l40,39.4c1,1,2.3,1.5,3.7,1.5
		c1.3,0,2.7-0.5,3.7-1.6c2-2,2-5.3-0.1-7.3l-39.9-39.3l41.2-40.6C892.7,456.5,892.7,453.2,890.7,451.2"/>
</g>
</svg>
